<svg width="144" height="86" viewBox="0 0 144 86" fill="none" xmlns="http://www.w3.org/2000/svg">
<mask id="mask0" mask-type="alpha" maskUnits="userSpaceOnUse" x="0" y="0" width="144" height="86">
<rect width="144" height="86" fill="white"/>
</mask>
<g mask="url(#mask0)">
<g opacity="0.8">
<path fill-rule="evenodd" clip-rule="evenodd" d="M10.9368 43.5899C10.9368 35.7492 10.9368 31.8288 12.4627 28.8341C13.8049 26.1998 15.9466 24.0581 18.5809 22.7159C21.5757 21.1899 25.496 21.1899 33.3368 21.1899H109.524C117.365 21.1899 121.285 21.1899 124.28 22.7159C126.914 24.0581 129.056 26.1998 130.398 28.8341C131.924 31.8288 131.924 35.7492 131.924 43.5899V223.676C131.924 231.517 131.924 235.437 130.398 238.432C129.056 241.066 126.914 243.208 124.28 244.55C121.285 246.076 117.365 246.076 109.524 246.076H33.3368C25.496 246.076 21.5757 246.076 18.5809 244.55C15.9466 243.208 13.8049 241.066 12.4627 238.432C10.9368 235.437 10.9368 231.517 10.9368 223.676V43.5899Z" fill="white"/>
<path d="M11.9368 43.5899C11.9368 39.6531 11.9375 36.7606 12.1242 34.4762C12.3099 32.2035 12.6745 30.621 13.3537 29.2881C14.6 26.842 16.5888 24.8532 19.0349 23.6069C20.3678 22.9277 21.9503 22.563 24.223 22.3774C26.5074 22.1907 29.3999 22.1899 33.3368 22.1899H109.524C113.461 22.1899 116.353 22.1907 118.638 22.3774C120.911 22.563 122.493 22.9277 123.826 23.6069C126.272 24.8532 128.261 26.842 129.507 29.2881C130.186 30.621 130.551 32.2035 130.737 34.4762C130.923 36.7606 130.924 39.6531 130.924 43.5899V223.676C130.924 227.613 130.923 230.505 130.737 232.79C130.551 235.062 130.186 236.645 129.507 237.978C128.261 240.424 126.272 242.413 123.826 243.659C122.493 244.338 120.911 244.703 118.638 244.889C116.353 245.075 113.461 245.076 109.524 245.076H33.3368C29.3999 245.076 26.5074 245.075 24.223 244.889C21.9503 244.703 20.3678 244.338 19.0349 243.659C16.5888 242.413 14.6 240.424 13.3537 237.978C12.6745 236.645 12.3099 235.062 12.1242 232.79C11.9375 230.505 11.9368 227.613 11.9368 223.676V43.5899Z" stroke="#28343F" stroke-opacity="0.34" stroke-width="2"/>
<path d="M62.3305 28.9823H81.8972" stroke="#28343F" stroke-opacity="0.34" stroke-width="2" stroke-linecap="round"/>
<path fill-rule="evenodd" clip-rule="evenodd" d="M17.3273 35.8569H126.901V216.371H17.3273V35.8569Z" fill="white"/>
<path d="M18.3273 36.8569H125.901V215.371H18.3273V36.8569Z" stroke="#28343F" stroke-opacity="0.34" stroke-width="2"/>
<g opacity="0.64">
<path fill-rule="evenodd" clip-rule="evenodd" d="M17.0886 35.5444H126.662V56.1094H17.0886V35.5444Z" fill="#28343F" fill-opacity="0.1"/>
<path d="M18.0886 36.5444H125.662V55.1094H18.0886V36.5444Z" stroke="#28343F" stroke-opacity="0.34" stroke-width="2"/>
</g>
<path fill-rule="evenodd" clip-rule="evenodd" d="M120.052 64.8877H24.1755V70.4963H120.052V64.8877ZM120.052 72.8852H24.1755V78.4939H120.052V72.8852ZM24.1755 80.8827H120.198V86.4913H24.1755V80.8827ZM120.052 88.8803H24.1755V94.4889H120.052V88.8803ZM24.1755 96.8777H120.052V102.486H24.1755V96.8777ZM120.052 104.875H24.1755V110.484H120.052V104.875ZM24.1755 112.873H99.653V118.481H24.1755V112.873ZM120.052 120.87H24.1755V126.479H120.052V120.87ZM24.1755 128.868H120.052V134.476H24.1755V128.868ZM120.052 136.865H24.1755V142.474H120.052V136.865ZM24.1755 144.862H120.198V150.471H24.1755V144.862ZM120.052 152.86H24.1755V158.469H120.052V152.86ZM24.1755 160.857H120.052V166.466H24.1755V160.857ZM120.052 168.855H24.1755V174.464H120.052V168.855ZM24.1755 184.85H120.052V190.458H24.1755V184.85ZM120.052 192.847H24.1755V198.456H120.052V192.847ZM24.1755 200.845H108.638V206.453H24.1755V200.845ZM99.653 176.852H24.1755V182.461H99.653V176.852Z" fill="#28343F" fill-opacity="0.2"/>
<g filter="url(#filter0_d)">
<path fill-rule="evenodd" clip-rule="evenodd" d="M23.9241 43.7471H120.304V73.1981H23.9241V43.7471Z" fill="#28343F"/>
<path d="M24.9241 44.7471H119.304V72.1981H24.9241V44.7471Z" stroke="#28343F" stroke-width="2"/>
</g>
<circle cx="34" cy="56" r="5" fill="white"/>
</g>
</g>
<defs>
<filter id="filter0_d" x="19.9241" y="41.7471" width="104.38" height="37.451" filterUnits="userSpaceOnUse" color-interpolation-filters="sRGB">
<feFlood flood-opacity="0" result="BackgroundImageFix"/>
<feColorMatrix in="SourceAlpha" type="matrix" values="0 0 0 0 0 0 0 0 0 0 0 0 0 0 0 0 0 0 127 0"/>
<feOffset dy="2"/>
<feGaussianBlur stdDeviation="2"/>
<feColorMatrix type="matrix" values="0 0 0 0 0 0 0 0 0 0 0 0 0 0 0 0 0 0 0.5 0"/>
<feBlend mode="normal" in2="BackgroundImageFix" result="effect1_dropShadow"/>
<feBlend mode="normal" in="SourceGraphic" in2="effect1_dropShadow" result="shape"/>
</filter>
</defs>
</svg>
