<svg width="24" height="21" viewBox="0 0 24 21" fill="none" xmlns="http://www.w3.org/2000/svg">
<path fill-rule="evenodd" clip-rule="evenodd" d="M1.64987 8.65992C8.09231 5.83746 12.3883 3.97672 14.5378 3.0777C20.675 0.510823 21.9503 0.0649295 22.7815 0.0502058C22.9643 0.0469675 23.3731 0.0925262 23.6379 0.308569C23.8614 0.490991 23.9229 0.737418 23.9524 0.910374C23.9818 1.08333 24.0185 1.47733 23.9893 1.78519C23.6568 5.29905 22.2177 13.8263 21.4856 17.7618C21.1758 19.4271 20.5658 19.9855 19.9753 20.0401C18.6919 20.1589 17.7174 19.1873 16.4744 18.368C14.5294 17.0859 13.4305 16.2878 11.5425 15.0367C9.36064 13.5909 10.7751 12.7962 12.0185 11.4975C12.344 11.1577 17.9985 5.98589 18.1079 5.51673C18.1216 5.45806 18.1343 5.23934 18.0051 5.12385C17.8759 5.00835 17.6851 5.04785 17.5475 5.07926C17.3524 5.12378 14.2452 7.18895 8.22584 11.2748C7.34386 11.8838 6.545 12.1805 5.82924 12.1649C5.04018 12.1478 3.52233 11.7163 2.39397 11.3475C1.00999 10.8951 -0.0899676 10.6559 0.00581423 9.88766C0.0557033 9.4875 0.603723 9.07825 1.64987 8.65992Z" fill="white"/>
</svg>
