<svg width="257" height="28" viewBox="0 0 257 28" fill="none" xmlns="http://www.w3.org/2000/svg">
<path d="M141.608 3.14099C139.564 2.56158 137.826 2.40911 136.393 3.41544C135.021 4.39129 134.563 5.91604 134.563 7.9897V9.57544H132.276C131.849 9.57544 131.514 9.91089 131.514 10.3378C131.514 10.7648 131.849 11.1002 132.276 11.1002H134.563V23.5727C134.563 24.0301 134.929 24.4265 135.387 24.396C135.844 24.396 136.21 24.0301 136.21 23.5727V11.1002H140.51C140.937 11.1002 141.272 10.7648 141.272 10.3378C141.272 9.91089 140.937 9.57544 140.51 9.57544H136.21V8.0202C136.21 6.40396 136.454 5.45861 137.186 4.78772C138.284 3.78138 139.808 4.17782 141.211 4.57426C141.699 4.69624 142.156 4.3303 142.156 3.84238C142.156 3.50693 141.912 3.23247 141.608 3.14099ZM144.72 24.396C145.147 24.396 145.543 24.0301 145.543 23.5727V3.6899C145.543 3.26297 145.147 2.86653 144.72 2.86653C144.263 2.86653 143.897 3.26297 143.897 3.6899V23.5727C143.897 24.0301 144.263 24.396 144.72 24.396ZM155.043 24.579C159.16 24.579 162.453 21.4075 162.453 16.8943C162.453 12.4115 159.16 9.2095 155.043 9.2095C150.956 9.2095 147.633 12.4115 147.633 16.8943C147.633 21.4075 150.956 24.579 155.043 24.579ZM155.043 23.0543C151.902 23.0543 149.34 20.4927 149.34 16.8943C149.34 13.3263 151.902 10.7343 155.043 10.7343C158.214 10.7343 160.745 13.3263 160.745 16.8943C160.745 20.4927 158.214 23.0543 155.043 23.0543ZM188.36 9.39247C187.964 9.17901 187.476 9.36198 187.293 9.78891L181.926 21.9564L176.558 9.78891C176.406 9.48396 176.101 9.30099 175.796 9.30099C175.461 9.30099 175.156 9.48396 175.034 9.78891L169.667 21.9564L164.299 9.78891C164.116 9.36198 163.629 9.17901 163.202 9.39247C162.805 9.57544 162.622 10.0634 162.805 10.4598L168.874 23.9996C169.026 24.335 169.331 24.4875 169.667 24.4875C170.002 24.4875 170.307 24.335 170.429 23.9996L175.796 11.9236L181.133 23.9996C181.285 24.335 181.59 24.4875 181.926 24.4875C182.231 24.4875 182.566 24.335 182.688 23.9996L188.787 10.4598C188.97 10.0634 188.787 9.57544 188.36 9.39247ZM196.551 24.579C198.533 24.579 200.363 23.8166 201.705 22.4748C201.857 22.3529 201.949 22.1394 201.949 21.9259C201.949 21.4685 201.613 21.1331 201.156 21.1331C200.943 21.1331 200.729 21.2246 200.607 21.3465C199.509 22.4444 198.076 23.0543 196.551 23.0543C193.38 23.0543 190.849 20.4927 190.849 16.8943C190.849 13.3263 193.38 10.7343 196.551 10.7343C198.076 10.7343 199.509 11.3747 200.607 12.4725C200.729 12.5945 200.943 12.6859 201.156 12.6859C201.613 12.6859 201.949 12.3505 201.949 11.8931C201.949 11.6796 201.857 11.4661 201.705 11.3442C200.363 10.0024 198.533 9.2095 196.551 9.2095C192.434 9.2095 189.141 12.4115 189.141 16.8943C189.141 21.4075 192.434 24.579 196.551 24.579ZM217.635 9.39247C217.208 9.39247 216.811 9.78891 216.811 10.2158V12.32C215.531 10.3988 213.396 9.2095 210.956 9.2095C206.992 9.2095 203.759 12.4115 203.759 16.8943C203.759 21.4075 206.992 24.579 210.956 24.579C213.396 24.579 215.531 23.4202 216.811 21.499V23.5727C216.811 24.0301 217.208 24.396 217.635 24.396C218.092 24.396 218.458 24.0301 218.458 23.5727V10.2158C218.458 9.78891 218.092 9.39247 217.635 9.39247ZM211.17 23.0543C208.029 23.0543 205.467 20.4927 205.467 16.8943C205.467 13.3263 208.029 10.7343 211.17 10.7343C214.341 10.7343 216.872 13.3263 216.872 16.8943C216.872 20.4927 214.341 23.0543 211.17 23.0543ZM227.625 9.24C225.551 9.30099 223.813 10.3378 222.776 11.9541V10.2158C222.776 9.75841 222.41 9.39247 221.953 9.39247C221.495 9.39247 221.129 9.75841 221.129 10.2158V23.5727C221.129 24.0301 221.495 24.396 221.953 24.396C222.379 24.396 222.776 24.0301 222.776 23.5727V15.7354C222.776 12.8384 224.88 10.8867 227.625 10.8867C228.082 10.8867 228.448 10.5208 228.448 10.0634C228.448 9.60594 228.082 9.24 227.625 9.24ZM242.882 2.86653C242.455 2.86653 242.059 3.26297 242.059 3.6899V12.32C240.778 10.3988 238.644 9.2095 236.204 9.2095C232.24 9.2095 229.007 12.4115 229.007 16.8943C229.007 21.4075 232.24 24.579 236.204 24.579C238.644 24.579 240.778 23.4202 242.059 21.499V23.5727C242.059 24.0301 242.455 24.396 242.882 24.396C243.34 24.396 243.706 24.0301 243.706 23.5727V3.6899C243.706 3.26297 243.34 2.86653 242.882 2.86653ZM236.417 23.0543C233.276 23.0543 230.715 20.4927 230.715 16.8943C230.715 13.3263 233.276 10.7343 236.417 10.7343C239.589 10.7343 242.12 13.3263 242.12 16.8943C242.12 20.4927 239.589 23.0543 236.417 23.0543ZM250.463 24.579C252.842 24.6705 255.861 23.3287 255.891 20.4012C255.952 15.1255 247.017 17.4127 247.139 13.5703C247.2 11.8626 248.725 10.7343 250.799 10.7952C251.957 10.8257 253.33 11.2527 254.397 11.8626C254.489 11.9236 254.611 11.9846 254.763 11.9846C255.19 11.9846 255.525 11.6491 255.556 11.2222C255.556 10.9477 255.403 10.6733 255.159 10.5513C253.94 9.8194 252.049 9.27049 250.616 9.2095C247.719 9.11802 245.615 10.8867 245.523 13.5093C245.31 19.1509 254.336 16.9552 254.245 20.4622C254.184 21.9869 252.445 23.0847 250.25 23.0238C249.03 22.9628 247.902 22.6883 246.712 22.1089C246.621 22.0784 246.499 22.0479 246.407 22.0479C245.98 22.0174 245.615 22.3834 245.584 22.7798C245.584 23.0847 245.767 23.3897 246.041 23.5117C247.414 24.1826 248.877 24.5485 250.463 24.579Z" fill="#1D355D" fill-opacity="0.5"/>
<path fill-rule="evenodd" clip-rule="evenodd" d="M81.0197 9.18594C79.8792 9.18594 78.8096 9.52255 77.9009 10.1023C77.6691 9.54127 77.1346 9.14855 76.5286 9.14855C75.6908 9.14855 75.0315 9.85916 75.0315 10.7194V23.3797C75.0315 24.2586 75.7088 24.9505 76.5286 24.9505C77.3483 24.9505 78.0256 24.2399 78.0256 23.3797V15.4881C78.0256 13.7489 79.3621 12.3463 81.0197 12.3463C81.8572 12.3463 82.5167 11.6357 82.5167 10.7755C82.5167 9.91527 81.8572 9.18594 81.0197 9.18594Z" fill="#1D355D"/>
<path fill-rule="evenodd" clip-rule="evenodd" d="M68.609 18.6035C68.609 20.3447 67.2187 21.7489 65.4949 21.7489C63.7708 21.7489 62.3808 20.3447 62.3808 18.6035V15.4581C62.3808 13.7169 63.7708 12.3127 65.4949 12.3127H68.609V18.6035ZM70.1659 9.14855H65.4763C62.0285 9.14855 59.2296 11.9757 59.2296 15.4581V18.6035C59.2296 22.086 62.0285 24.9131 65.4763 24.9131C66.6626 24.9131 67.7748 24.5761 68.7202 23.9957C68.9611 24.5574 69.5172 24.9505 70.1474 24.9505C71.0187 24.9505 71.7045 24.2391 71.7045 23.3778V10.7213C71.7228 9.86002 71.0187 9.14855 70.1659 9.14855Z" fill="#1D355D"/>
<path fill-rule="evenodd" clip-rule="evenodd" d="M49.9599 9.18578C48.0789 9.18578 46.4028 10.0047 45.2481 11.3076C44.0935 10.0047 42.4173 9.18578 40.5364 9.18578C39.3446 9.18578 38.2271 9.52081 37.2773 10.0978C37.0353 9.53941 36.4766 9.14855 35.8435 9.14855C34.968 9.14855 34.2791 9.85581 34.2791 10.712V23.3126C34.2791 24.1874 34.9868 24.876 35.8435 24.876C36.7001 24.876 37.4078 24.1688 37.4078 23.3126V15.4582C37.4078 13.7272 38.8045 12.3313 40.5364 12.3313C42.2685 12.3313 43.6652 13.7272 43.6652 15.4582V23.3871C43.6652 24.2619 44.3729 24.9505 45.2295 24.9505C46.0862 24.9505 46.7939 24.2433 46.7939 23.3871V15.4582C46.7939 13.7272 48.1906 12.3313 49.9225 12.3313C51.6546 12.3313 53.0513 13.7272 53.0513 15.4582V23.3871C53.0513 24.2619 53.759 24.9505 54.6156 24.9505C55.4723 24.9505 56.18 24.2433 56.18 23.3871V15.3837C56.18 15.3651 56.18 15.3279 56.18 15.3093C56.1429 11.9032 53.3678 9.18578 49.9599 9.18578Z" fill="#1D355D"/>
<path fill-rule="evenodd" clip-rule="evenodd" d="M109.26 15.3621C109.26 13.6474 110.679 12.2646 112.438 12.2646C114.198 12.2646 115.617 13.6474 115.617 15.3621H109.26ZM112.457 9.14855C108.938 9.14855 106.081 11.9327 106.081 15.3621V18.4597C106.081 21.8892 108.938 24.6733 112.457 24.6733H115.636C116.525 24.6733 117.225 23.9727 117.225 23.1245C117.225 22.2764 116.506 21.5757 115.636 21.5757H112.457C110.698 21.5757 109.279 20.1929 109.279 18.4781H117.244C118.133 18.4781 118.834 17.7775 118.834 16.9294V15.3806C118.815 11.9327 115.976 9.14855 112.457 9.14855Z" fill="#1D355D"/>
<path fill-rule="evenodd" clip-rule="evenodd" d="M95.0521 15.3621C95.0521 13.6474 96.4402 12.2646 98.1615 12.2646C99.8828 12.2646 101.271 13.6474 101.271 15.3621H95.0521ZM98.18 9.14855C94.7374 9.14855 91.9424 11.9327 91.9424 15.3621V18.4597C91.9424 21.8892 94.7374 24.6733 98.18 24.6733H101.289C102.16 24.6733 102.844 23.9727 102.844 23.1245C102.844 22.2764 102.141 21.5757 101.289 21.5757H98.18C96.4587 21.5757 95.0704 20.1929 95.0704 18.4781H102.863C103.733 18.4781 104.418 17.7775 104.418 16.9294V15.3806C104.399 11.9327 101.623 9.14855 98.18 9.14855Z" fill="#1D355D"/>
<path fill-rule="evenodd" clip-rule="evenodd" d="M121.744 2.77231C120.891 2.77231 120.22 3.4806 120.22 4.33801V23.1076C120.22 23.9836 120.909 24.6733 121.744 24.6733C122.579 24.6733 123.269 23.965 123.269 23.1076V4.33801C123.269 3.4806 122.579 2.77231 121.744 2.77231Z" fill="#1D355D"/>
<path fill-rule="evenodd" clip-rule="evenodd" d="M89.8541 9.22229H87.3343V7.65506C87.3343 5.91992 88.7343 4.52062 90.4701 4.52062H92.0378C92.9152 4.52062 93.6058 3.81163 93.6058 2.95339C93.6058 2.09515 92.8964 1.38617 92.0378 1.38617H90.4701C86.9983 1.38617 84.18 4.20344 84.18 7.67372V23.3833C84.18 24.2602 84.8892 24.9505 85.7478 24.9505C86.6063 24.9505 87.3158 24.2415 87.3158 23.3833V12.3754H89.8355C90.7126 12.3754 91.4032 11.6664 91.4032 10.8082C91.4032 9.94993 90.7126 9.22229 89.8541 9.22229Z" fill="#1D355D"/>
<path d="M6.78144 8.06645C6.26626 6.14385 7.40722 4.16769 9.32982 3.65252L22.1833 0.208435L26.7754 17.3465C27.2905 19.269 26.1496 21.2452 24.227 21.7604L14.8547 24.2717C12.9321 24.7869 10.9559 23.6459 10.4408 21.7233L6.78144 8.06645Z" fill="#FF8B00"/>
<path fill-rule="evenodd" clip-rule="evenodd" d="M5.87304 10.0319L2.92744 10.8212C1.00486 11.3363 -0.13609 13.3125 0.379068 15.2351L3.0339 25.1431C3.54904 27.0657 5.52523 28.2065 7.44781 27.6914L13.8746 25.9693C11.952 26.4846 9.97579 25.3436 9.46065 23.421L5.87304 10.0319Z" fill="#FF8B00"/>
</svg>
